<svg xmlns="http://www.w3.org/2000/svg" viewBox="0 0 512 512"><title>ShareyourExpertise</title><path d="M33.39,150.17V495.3A16.7,16.7,0,0,0,50.09,512h66.78a16.7,16.7,0,0,0,16.7-16.7V400.7H361.74A16.72,16.72,0,0,0,378.43,384V333.91H495.3a16.7,16.7,0,0,0,16.7-16.7V83.48a16.7,16.7,0,0,0-16.7-16.7H228.17a16.7,16.7,0,0,0-16.7,16.7v50.09H150.29A82.66,82.66,0,0,0,167,83.48a83.48,83.48,0,0,0-167,0A82.62,82.62,0,0,0,33.39,150.17Zm66.78,328.44H66.78V165.27a84,84,0,0,0,33.39,0V478.61ZM345,357L298.9,333.91H345V357ZM244.87,100.17H478.61V300.52H244.87V100.17Zm-24.16,232L291,367.3H133.57V167h77.91V317.22A16.75,16.75,0,0,0,220.71,332.15ZM83.48,33.39a50.14,50.14,0,0,1,50.09,50.09c0,28.48-23.43,50.09-50.09,50.09S33.39,112,33.39,83.48A50.14,50.14,0,0,1,83.48,33.39Z" transform="translate(0 0)" fill="#fff"/><rect x="288.04" y="176.74" width="47.23" height="47.23" transform="translate(-50.39 279.05) rotate(-45)" fill="#fff"/><rect x="388.21" y="176.74" width="47.23" height="47.23" transform="translate(-21.05 349.89) rotate(-45)" fill="#fff"/></svg>